<svg width="16px" height="16px" viewBox="0 0 16 16" version="1.1" xmlns="http://www.w3.org/2000/svg" xmlns:xlink="http://www.w3.org/1999/xlink">
    <g id="Page-1" stroke="none" stroke-width="1" fill="none" fill-rule="evenodd">
        <g id="1.-Step-1---Provide-Basic-Information" transform="translate(-392.000000, -1353.000000)">
            <g id="Box_forms" transform="translate(370.000000, 879.000000)">
                <g id="UMOJA" transform="translate(20.000000, 376.000000)">
                    <g id="Calendar">
                        <g id="multiple_selector_checked" transform="translate(2.000000, 98.000000)">
                            <rect id="Rectangle-3" fill="#52B3FF" x="0" y="0" width="16" height="16" rx="2"></rect>
                            <path d="M13.5051322,5.5778057 C13.5051322,5.38778944 13.4440564,5.231707 13.3219031,5.10955369 L12.3955785,4.19340844 C12.2666389,4.06446884 12.1139495,4 11.9375059,4 C11.7610622,4 11.6083728,4.06446884 11.4794332,4.19340844 L7.32624145,8.33642084 L5.02569894,6.03587833 C4.89675933,5.90693872 4.74406998,5.84246989 4.56762631,5.84246989 C4.39118264,5.84246989 4.23849329,5.90693872 4.10955369,6.03587833 L3.18322905,6.95202358 C3.06107574,7.07417689 3,7.23025933 3,7.42027559 C3,7.60350556 3.06107574,7.7561949 3.18322905,7.87834821 L6.86816882,11.563288 C6.99710843,11.6922276 7.14979778,11.7566964 7.32624145,11.7566964 C7.50947141,11.7566964 7.66555386,11.6922276 7.79449346,11.563288 L13.3219031,6.03587833 C13.4440564,5.91372502 13.5051322,5.76103567 13.5051322,5.5778057 Z" id="ï˜" fill="#FFFFFF"></path>
                        </g>
                    </g>
                </g>
            </g>
        </g>
    </g>
</svg>