<svg width="47px" height="27px" viewBox="0 0 47 27" version="1.1" xmlns="http://www.w3.org/2000/svg" xmlns:xlink="http://www.w3.org/1999/xlink">
    <g id="Page-1" stroke="none" stroke-width="1" fill="none" fill-rule="evenodd">
        <g id="mobile_menu" transform="translate(-300.000000, -385.000000)" fill="#FFFFFF">
            <g id="logo_dgacm" transform="translate(300.000000, 385.000000)">
                <path d="M2.51262823,7.98497809 L2.51262823,10.1631546 L1.3330431,10.1631546 L1.3330431,4.08762779 L3.42732407,4.08762779 C4.02884651,4.08762779 4.50343508,4.26705433 4.85110401,4.62591279 C5.19877295,4.98477125 5.37260481,5.4548966 5.37260481,6.03630294 C5.37260481,6.62049113 5.19808314,7.09131193 4.84903456,7.44877947 C4.49998599,7.80624701 4.02608723,7.98497809 3.42732407,7.98497809 L2.51262823,7.98497809 Z M2.51262823,7.03359065 L3.42732407,7.03359065 C3.6784183,7.03359065 3.87018519,6.94040013 4.0026305,6.75401627 C4.13507581,6.56763242 4.20129747,6.33117884 4.20129747,6.04464845 C4.20129747,5.7553362 4.13576562,5.51540536 4.00469995,5.32484874 C3.87363428,5.13429211 3.68117757,5.03901523 3.42732407,5.03901523 L2.51262823,5.03901523 L2.51262823,7.03359065 Z M10.1861399,7.98080534 C10.1861399,8.69295856 9.99437302,9.24931992 9.61083348,9.64990611 C9.22729394,10.0504923 8.71683531,10.2507824 8.07944226,10.2507824 C7.44204921,10.2507824 6.9329702,10.0504923 6.55218994,9.64990611 C6.17140967,9.24931992 5.9810224,8.69295856 5.9810224,7.98080534 L5.9810224,6.27832255 C5.9810224,5.56895118 6.17140967,5.01189437 6.55218994,4.60713541 C6.9329702,4.20237644 7.4406696,4 8.07530337,4 C8.70993713,4 9.22039577,4.20237644 9.60669459,4.60713541 C9.9929934,5.01189437 10.1861399,5.56895118 10.1861399,6.27832255 L10.1861399,7.98080534 Z M9.01483257,6.26997705 C9.01483257,5.83600868 8.93481473,5.50845093 8.77477665,5.28729397 C8.61473857,5.06613701 8.38158314,4.95556019 8.07530337,4.95556019 C7.76626431,4.95556019 7.5344885,5.06544156 7.37996897,5.28520759 C7.22544945,5.50497363 7.14819084,5.83322683 7.14819084,6.26997705 L7.14819084,7.98080534 C7.14819084,8.42033741 7.22682907,8.74998151 7.38410787,8.96974755 C7.54138667,9.18951358 7.77316249,9.29939495 8.07944226,9.29939495 C8.38296276,9.29939495 8.61473857,9.18951358 8.77477665,8.96974755 C8.93481473,8.74998151 9.01483257,8.42033741 9.01483257,7.98080534 L9.01483257,6.26997705 Z M14.9955361,7.96411433 L15.0203695,7.96411433 L15.670176,4.08762779 L16.8125111,4.08762779 L15.6494816,10.1631546 L14.5526743,10.1631546 L13.7042008,6.44105988 L13.6793675,6.44105988 L12.8391717,10.1631546 L11.7465034,10.1631546 L10.5834739,4.08762779 L11.7258089,4.08762779 L12.3756155,7.96411433 L12.4004488,7.96411433 L13.2696168,4.08762779 L14.1139514,4.08762779 L14.9955361,7.96411433 Z M20.5623502,7.49676612 L18.5384304,7.49676612 L18.5384304,9.21593991 L20.9182951,9.21593991 L20.9182951,10.1631546 L17.3588453,10.1631546 L17.3588453,4.08762779 L20.9100174,4.08762779 L20.9100174,5.03901523 L18.5384304,5.03901523 L18.5384304,6.54955143 L20.5623502,6.54955143 L20.5623502,7.49676612 Z M22.7104368,7.74713123 L22.7104368,10.1631546 L21.5349905,10.1631546 L21.5349905,4.09180054 L23.5009657,4.09180054 C24.0942104,4.09180054 24.5598314,4.24966808 24.8978429,4.56540789 C25.2358543,4.88114769 25.4048575,5.31997772 25.4048575,5.88191112 C25.4048575,6.19904185 25.334497,6.47235437 25.1937739,6.70185687 C25.0530507,6.93135938 24.8474877,7.11426318 24.5770785,7.25057375 C24.8861175,7.356284 25.1089258,7.53153783 25.2455101,7.7763405 C25.3820943,8.02114317 25.4503854,8.32714192 25.4503854,8.69434592 L25.4503854,9.12413937 C25.4503854,9.29105028 25.4697,9.46978137 25.5083299,9.66033799 C25.5469598,9.85089462 25.6145611,9.98928951 25.7111358,10.0755268 L25.7111358,10.1631546 L24.4943006,10.1631546 C24.3977259,10.0741354 24.3370227,9.92948149 24.3121892,9.7291884 C24.2873557,9.52889531 24.2749391,9.32443251 24.2749391,9.11579387 L24.2749391,8.70269142 C24.2749391,8.39946994 24.2135461,8.16440726 24.0907583,7.99749635 C23.9679705,7.83058544 23.7920692,7.74713123 23.5630492,7.74713123 L22.7104368,7.74713123 Z M22.7104368,6.79991654 L23.4968268,6.79991654 C23.736884,6.79991654 23.9189935,6.72619866 24.043161,6.57876069 C24.1673285,6.43132272 24.2294113,6.22129631 24.2294113,5.94867515 C24.2294113,5.6704903 24.1673285,5.44933666 24.043161,5.28520759 C23.9189935,5.12107853 23.7382636,5.03901523 23.5009657,5.03901523 L22.7104368,5.03901523 L22.7104368,6.79991654 Z M29.5437527,7.49676612 L27.519833,7.49676612 L27.519833,9.21593991 L29.8996977,9.21593991 L29.8996977,10.1631546 L26.3402478,10.1631546 L26.3402478,4.08762779 L29.8914199,4.08762779 L29.8914199,5.03901523 L27.519833,5.03901523 L27.519833,6.54955143 L29.5437527,6.54955143 L29.5437527,7.49676612 Z M30.5122542,10.1631546 L30.5122542,4.08762779 L32.3333681,4.08762779 C32.9514462,4.08762779 33.4619048,4.32338592 33.8647593,4.79490924 C34.2676138,5.26643257 34.469038,5.8735619 34.469038,6.61631546 L34.469038,7.63863968 C34.469038,8.38139324 34.2676138,8.98782712 33.8647593,9.45795952 C33.4619048,9.92809193 32.9514462,10.1631546 32.3333681,10.1631546 L30.5122542,10.1631546 Z M31.6918393,5.03901523 L31.6918393,9.21593991 L32.2671458,9.21593991 C32.5954998,9.21593991 32.8486596,9.07198141 33.026633,8.78406009 C33.2046064,8.49613876 33.2935918,8.11433578 33.2935918,7.63863968 L33.2935918,6.60796996 C33.2935918,6.13505571 33.2046064,5.75533908 33.026633,5.46880868 C32.8486596,5.18227828 32.5954998,5.03901523 32.2671458,5.03901523 L31.6918393,5.03901523 Z M37.1344865,10.1631546 L37.1344865,4.08762779 L38.9100725,4.08762779 C39.5309099,4.08762779 40.0158456,4.22671813 40.3648942,4.50490298 C40.7139428,4.78308784 40.8884644,5.19757705 40.8884644,5.74838306 C40.8884644,6.03769531 40.825002,6.29431698 40.6980753,6.51825579 C40.5711485,6.7421946 40.3807612,6.90979846 40.1269077,7.0210724 C40.4442246,7.09618231 40.6787597,7.25891801 40.8305199,7.50928437 C40.9822802,7.75965074 41.0581591,8.05313136 41.0581591,8.38973503 C41.0581591,8.97114137 40.8932948,9.41205775 40.5635612,9.71249739 C40.2338275,10.012937 39.7613084,10.1631546 39.1459896,10.1631546 L37.1344865,10.1631546 Z M38.3140716,7.48424786 L38.3140716,9.21593991 L39.1459896,9.21593991 C39.3943245,9.21593991 39.5798831,9.14639474 39.702671,9.00730232 C39.8254588,8.86820989 39.8868518,8.66096528 39.8868518,8.38556228 C39.8868518,8.09625003 39.8344263,7.87370549 39.7295738,7.71792197 C39.6247213,7.56213845 39.4564079,7.48424786 39.2246286,7.48424786 L38.3140716,7.48424786 Z M38.3140716,6.65387023 L38.9638782,6.65387023 C39.2039353,6.64830653 39.3881143,6.57806591 39.5164207,6.44314625 C39.6447271,6.3082266 39.7088793,6.11419558 39.7088793,5.86104736 C39.7088793,5.57729881 39.6426576,5.36935875 39.5102123,5.23722095 C39.377767,5.10508314 39.1777224,5.03901523 38.9100725,5.03901523 L38.3140716,5.03901523 L38.3140716,6.65387023 Z M43.6904965,6.69142499 L43.7153299,6.69142499 L44.7210814,4.08762779 L46,4.08762779 L44.2782196,8.0016691 L44.2782196,10.1631546 L43.1027734,10.1631546 L43.1027734,7.92655957 L41.4099652,4.08762779 L42.6971616,4.08762779 L43.6904965,6.69142499 Z M1,23.8364281 L1,12.4954447 L4.39941258,12.4954447 C5.55315838,12.4954447 6.5060145,12.9355266 7.25800953,13.8157035 C8.01000456,14.6958803 8.38599643,15.8291884 8.38599643,17.2156617 L8.38599643,19.1240003 C8.38599643,20.5104736 8.01000456,21.6424835 7.25800953,22.520064 C6.5060145,23.3976445 5.55315838,23.8364281 4.39941258,23.8364281 L1,23.8364281 Z M3.20189224,14.271368 L3.20189224,22.068294 L4.27579758,22.068294 C4.88872504,22.068294 5.36129016,21.7995715 5.69350715,21.2621184 C6.02572413,20.7246652 6.19183013,20.0119663 6.19183013,19.1240003 L6.19183013,17.2000835 C6.19183013,16.3173102 6.02572413,15.6085058 5.69350715,15.0736491 C5.36129016,14.5387923 4.88872504,14.271368 4.27579758,14.271368 L3.20189224,14.271368 Z M17.3403582,22.1539745 C17.0364698,22.6420962 16.580644,23.0717927 15.9728672,23.4430767 C15.3650904,23.8143608 14.5950797,24 13.6628119,24 C12.4575596,24 11.4905394,23.6442996 10.7617223,22.9328882 C10.0329052,22.2214768 9.66850209,21.2088992 9.66850209,19.8951248 L9.66850209,16.436748 C9.66850209,15.1333593 10.0200287,14.1233779 10.7230926,13.4067738 C11.4261564,12.6901696 12.3571226,12.3318729 13.5160191,12.3318729 C14.7624766,12.3318729 15.6973057,12.6395407 16.3205344,13.2548856 C16.9437632,13.8702305 17.2682493,14.7516923 17.2940026,15.8992976 L17.2785507,15.9460324 L15.2157253,15.9460324 C15.2002734,15.30732 15.0599203,14.8412746 14.7946617,14.5478823 C14.5294032,14.25449 14.1237956,14.1077961 13.5778266,14.1077961 C13.0421589,14.1077961 12.6223871,14.298628 12.3184987,14.6802977 C12.0146103,15.0619673 11.8626684,15.6422522 11.8626684,16.4211698 L11.8626684,19.8951248 C11.8626684,20.6896208 12.015898,21.2776947 12.3223617,21.6593644 C12.6288254,22.041034 13.0756377,22.2318659 13.6628119,22.2318659 C14.1006172,22.2318659 14.4238157,22.1721498 14.6324171,22.0527158 C14.8410184,21.9332817 15.012275,21.7567297 15.1461919,21.5230545 L15.1461919,19.4900897 L13.6628119,19.4900897 L13.6628119,17.9322623 L17.3403582,17.9322623 L17.3403582,22.1539745 Z M24.061924,21.4295848 L21.0951639,21.4295848 L20.4925408,23.8364281 L18.2751967,23.8364281 L21.4428311,12.4954447 L23.7297087,12.4954447 L26.8896172,23.8364281 L24.6722731,23.8364281 L24.061924,21.4295848 Z M21.5432683,19.6458725 L23.6138196,19.6458725 L22.6017218,15.6344669 L22.5553662,15.6344669 L21.5432683,19.6458725 Z M34.8164293,20.1833229 L34.8396071,20.2300577 C34.8499084,21.4763259 34.5563257,22.4162057 33.9588502,23.0497253 C33.3613747,23.6832449 32.4806266,24 31.3165795,24 C30.1525324,24 29.2228539,23.6404051 28.527516,22.9212045 C27.8321781,22.202004 27.4845144,21.1829354 27.4845144,19.8639683 L27.4845144,16.4756937 C27.4845144,15.1619194 27.8205893,14.1428508 28.4927493,13.4184575 C29.1649092,12.6940641 30.0649719,12.3318729 31.1929645,12.3318729 C32.3879155,12.3318729 33.2905535,12.6538206 33.9009057,13.2977259 C34.5112578,13.9416311 34.8267304,14.8944926 34.847333,16.1563391 L34.8241552,16.2030739 L32.7072483,16.2030739 C32.7381522,15.4605058 32.637716,14.9256571 32.4059367,14.5985117 C32.1741574,14.2713663 31.7698374,14.1077961 31.1929645,14.1077961 C30.698502,14.1077961 30.3199348,14.3025226 30.0572517,14.6919814 C29.7945685,15.0814402 29.6632288,15.6708123 29.6632288,16.4601154 L29.6632288,19.8639683 C29.6632288,20.663657 29.803582,21.2582219 30.0842924,21.6476806 C30.3650029,22.0371394 30.7757612,22.2318659 31.3165795,22.2318659 C31.8470965,22.2318659 32.2166502,22.0773829 32.4252516,21.7684123 C32.6338529,21.4594416 32.7252756,20.9310838 32.6995223,20.1833229 L34.8164293,20.1833229 Z M38.9807097,12.4954447 L40.9971794,20.8220321 L41.043535,20.8220321 L43.0831826,12.4954447 L45.9495055,12.4954447 L45.9495055,23.8364281 L43.7630651,23.8364281 L43.7630651,20.5416232 L43.9484876,16.1329717 L43.902132,16.1251826 L41.7543213,23.8364281 L40.2941191,23.8364281 L38.1694862,16.1874957 L38.1231306,16.1952848 L38.316279,20.5416232 L38.316279,23.8364281 L36.1298387,23.8364281 L36.1298387,12.4954447 L38.9807097,12.4954447 Z" id="POWERED-BY-DGACM" opacity="0.9"></path>
                <rect id="Rectangle" opacity="0.5" x="0" y="0" width="47" height="1"></rect>
                <rect id="Rectangle" opacity="0.5" x="0" y="26" width="47" height="1"></rect>
            </g>
        </g>
    </g>
</svg>