<svg width="50px" height="43px" viewBox="0 0 50 43" version="1.1" xmlns="http://www.w3.org/2000/svg" xmlns:xlink="http://www.w3.org/1999/xlink">
    <defs></defs>
    <g id="Page-1" stroke="none" stroke-width="1" fill="none" fill-rule="evenodd">
        <g id="desktop" transform="translate(-331.000000, -91.000000)" fill="#FFFFFF">
            <g id="header">
                <g id="United_Nations" transform="translate(331.000000, 91.593189)">
                    <path d="M41.6134619,34.1749611 C40.0920489,34.5668116 38.486113,34.7067582 37.0210487,35.210566 C39.5003883,33.0833776 39.3595168,29.8366163 41.0218013,27.3455667 C41.5571133,26.6458337 41.979728,25.890122 42.5995629,25.2183783 C41.5852876,27.2336095 42.0360766,29.8366163 40.8809297,31.7678795 C40.4301407,32.5515805 39.8103058,33.2793028 39.1059479,33.8950679 C39.3313425,33.8950679 39.5285626,33.6991426 39.7539572,33.559196 C41.6416362,31.6839115 44.0928015,31.1801037 46.1213521,29.6686804 C46.9384073,29.024926 47.6709394,28.1852464 48.0372055,27.2615988 C47.6427651,30.3404241 44.5435906,33.2513135 41.6134619,34.1749611 Z M48.4034716,21.6357452 C47.4737192,22.923254 46.374921,24.1547841 45.5296915,25.4702822 C45.6142145,24.4346773 45.7550861,23.1471686 45.3324713,22.139553 C44.6281135,20.0123646 44.0082786,17.8291976 43.7828841,15.5060839 L43.8110584,14.6104256 C44.3463704,16.9895179 46.7130127,18.6408879 46.5721412,21.3278627 C46.6284898,21.9716171 46.4312696,22.5314035 46.290398,23.0911899 L46.3467467,23.1471686 L46.4594439,23.0352113 C46.7975357,21.7197132 46.9947559,20.3482365 47.5300678,19.1167063 C48.3189486,17.3533791 49.2768753,15.5620625 48.8824349,13.4348741 C50.0375818,15.9259237 49.69949,19.2846423 48.4034716,21.6357452 Z M46.9384073,8.0889138 C48.4879945,10.1881129 48.8260863,13.4908528 47.6991137,15.8979344 C47.276499,16.90555 46.9665816,17.9971335 46.82571,19.1167063 C46.7411871,18.9207811 46.7411871,18.6688772 46.6566641,18.4449626 C46.0368292,16.0938596 43.8110584,14.4424897 42.881306,12.2313333 C42.5995629,11.503611 42.3459941,10.7478993 42.2051225,9.96419832 C43.1912235,11.7555149 45.6142145,12.7071518 46.2622237,14.6943936 C46.5439669,15.1982014 46.5157925,15.8139664 46.6848384,16.3737529 C46.7130127,16.3737529 46.7693614,16.3457635 46.7693614,16.3177742 C46.4876182,14.2745538 46.5721412,12.119376 46.8538843,10.1041449 C46.82571,9.0125614 46.7411871,7.9489672 46.1213521,7.10928756 C46.4876182,7.30521281 46.6848384,7.75304195 46.9384073,8.0889138 Z M45.839609,7.69706331 C46.2340494,9.51636918 45.6423888,11.3076857 46.0368292,13.1549809 L46.0086549,13.1829702 C44.9943796,11.2237178 42.881306,10.3000702 41.4162417,8.73266819 C40.5710123,7.80902059 40.2047462,6.66145843 39.9793517,5.45791762 C40.8245811,7.47314874 43.0785262,7.92097788 44.3745447,9.60033714 C44.7971594,9.99218764 44.938031,10.5239847 45.2197741,10.9718139 L45.2761227,10.9158352 C44.5154162,9.32044393 44.2900217,7.5571167 43.7547098,5.84976811 C43.5011409,5.12204577 42.965829,4.39432342 42.2896454,3.94649428 C44.0082786,4.31035545 45.5015172,6.07368268 45.839609,7.69706331 Z M41.3035444,3.49866514 C42.5995629,4.64622731 43.1630492,6.12966133 43.5574896,7.64108467 L43.7828841,8.11690313 C41.9233793,6.77341571 40.2329205,4.98209916 39.021425,3.10681464 L37.5563607,1.65136995 C38.8242048,2.18316705 40.2047462,2.5190389 41.3035444,3.49866514 Z M11.8332119,1.90327384 C10.5371935,3.02284668 9.66378973,4.45030206 8.70586305,5.76580015 C7.86063363,6.82939435 6.76183538,7.52912738 5.77573439,8.42478566 C6.31104635,7.33320213 6.31104635,6.04569336 7.07175283,5.06606712 C8.11420245,3.21877193 10.0864044,2.57501754 11.8332119,1.90327384 Z M4.78963339,5.82177879 C5.4094683,5.0380778 6.1983491,4.5062807 7.09992715,4.28236613 C5.35311967,5.45791762 5.46581693,7.58510602 4.93050496,9.34843325 C4.76145908,9.99218764 4.45154162,10.6079527 4.31067005,11.2796964 L4.36701868,11.3076857 C4.64876182,10.5519741 5.15589948,9.82425171 5.8039087,9.20848665 C7.04357852,8.0889138 8.87490893,7.36119145 9.46656953,5.70982151 C9.43839522,8.03293516 7.49436754,9.85224103 5.6066885,11.1677391 C4.84598202,11.8394828 4.08527554,12.5951945 3.66266083,13.4628635 C3.6063122,12.8750877 3.74718377,12.287312 3.71900946,11.6715469 C3.49361495,9.62832647 3.35274338,7.30521281 4.78963339,5.82177879 Z M1.29601845,12.7351411 C1.23966982,10.6919207 2.11307356,9.0125614 3.32456906,7.47314874 C3.35274338,7.44515942 3.38091769,7.4171701 3.43726632,7.4171701 C2.11307356,9.43240122 3.2118718,11.9514401 3.15552318,14.2465645 L2.98647729,16.5976674 C3.01465161,16.6256567 3.01465161,16.6816354 3.07100023,16.6536461 C3.15552318,16.4017422 3.15552318,16.121849 3.2118718,15.8419558 C3.52178926,13.9386819 5.18407379,12.6231838 6.62096381,11.3076857 C6.93088126,10.9718139 7.2126244,10.6079527 7.35349597,10.2161022 C7.24079872,11.1677391 6.93088126,12.0913867 6.53644087,12.987045 C5.4094683,15.170212 3.32456906,16.9615286 2.95830298,19.4525782 C2.76108278,17.0734859 1.12697256,15.2821693 1.29601845,12.7351411 Z M0.281743141,15.6740198 C0.422614711,15.0302654 0.535311967,14.3585217 0.817055108,13.770746 C0.281743141,16.4857101 2.11307356,18.4449626 2.73290847,20.7960656 C2.98647729,21.6637345 3.04282592,22.6153715 3.409092,23.4550511 C3.43726632,23.4830404 3.46544063,23.4270618 3.49361495,23.3990725 C2.5920369,20.9080229 3.88805534,18.5569199 5.18407379,16.5976674 C5.49399124,16.0658703 5.69121144,15.4780946 5.83208301,14.8623295 C5.97295458,15.9819024 5.69121144,17.2974005 5.52216556,18.4729519 C5.2122481,19.956386 4.73328476,21.3838413 4.31067005,22.839286 C4.02892691,23.7349443 4.11344986,24.7705492 4.25432143,25.7221861 L4.11344986,25.6102288 C3.15552318,23.8469016 1.26784413,22.5034142 0.704357852,20.572151 C0.253568827,19.1167063 -0.0281743141,17.3253898 0.281743141,15.6740198 Z M0.197220199,20.9919908 C0.394440397,23.8748909 3.52178926,25.3863143 4.98685359,27.7933959 C5.32494536,28.2692143 5.63486282,28.8290008 6.08565184,29.2208513 C6.0011289,28.9129687 5.71938576,28.6610648 5.6066885,28.3531823 C5.09955085,27.3455667 4.90233065,26.1700152 5.04320222,24.9384851 C5.18407379,23.4550511 5.8039087,22.1115637 5.57851419,20.5441617 C6.84635832,23.2591259 6.45191792,26.673823 7.18445009,29.6127017 C7.38167029,30.2564561 7.74793637,30.8442319 8.0015052,31.4599969 C5.38129399,29.6966697 1.83133041,28.0173104 0.676183538,24.7705492 C0.14087157,23.6509763 0.0845229422,22.2794996 0.197220199,20.9919908 Z M1.74680747,27.5974706 C3.2118718,30.8722212 6.84635832,31.1521144 9.29752365,33.1393562 C9.74831267,33.5312067 10.227276,33.8670786 10.7344137,34.1189824 L10.762588,34.0909931 C10.1991017,33.5871853 9.55109247,32.9994096 9.15665207,32.3556552 C7.71976206,30.3684134 8.22689971,27.6254599 7.15627578,25.4982715 C8.14237677,26.6458337 9.0157805,27.8493745 9.6074411,29.1648726 C10.4808448,31.3200503 10.8189366,33.727132 12.8474872,35.3505126 C10.6498907,34.6227902 8.08602814,34.8467048 6.17017478,33.5032174 C4.02892691,32.1877193 2.14124787,30.0045522 1.74680747,27.5974706 Z M5.49399124,33.6991426 C7.83245931,36.3301388 11.6359917,35.4624699 14.7633406,36.1342136 C15.2141296,36.1901922 15.60857,36.3581281 16.059359,36.3021495 C15.6930929,36.0782349 15.1859553,36.1062242 14.7633406,35.8823097 C12.3121753,35.04263 11.9740835,32.4116339 10.6498907,30.6483066 C12.3403496,31.7678795 13.7490653,33.2793028 15.3268269,34.7347475 C16.4537994,35.7143738 17.8061665,36.1622029 19.2148822,36.4420961 C18.8767904,36.5540534 18.4260014,36.5260641 18.0597353,36.6380213 C15.4958727,37.2537864 12.6784413,38.2893913 9.97370718,37.3657437 C8.1987254,36.8059573 6.36739498,35.4344805 5.49399124,33.6991426 Z M37.1619203,39.8567933 C34.5417091,40.8364195 31.7806263,39.8008146 29.7239014,38.261402 C28.8786719,37.7296049 28.1461398,36.9738932 27.0755158,37.0578612 C26.6810754,37.0578612 26.3148093,37.0578612 25.9767176,37.1698184 C27.9770939,38.093466 29.8365986,39.3529855 31.5270575,41.0043554 C31.2453143,41.3402273 30.8790482,41.6201205 30.5127821,41.9000137 C28.8786719,40.1646758 27.0755158,38.4573272 25.0469652,37.477701 C24.6525248,37.5336796 24.2862587,37.7575942 23.9199927,37.9535194 C22.2577081,38.9891243 20.6517722,40.3326117 19.4121024,41.9559924 L18.3696528,41.0883234 C20.0601116,39.4089641 21.9196164,38.093466 23.948167,37.1418291 C21.9477907,36.4980747 20.6517722,38.177434 19.1303593,39.0171136 C17.3553775,40.2486438 14.8196892,40.8084302 12.6784413,39.9687506 C11.5232945,39.5489107 10.4244962,38.9051564 9.57926679,37.8695515 C11.2697256,39.0171136 13.7772396,39.1290709 15.6649186,38.4013486 C18.2287812,37.2817757 20.905341,35.8823097 24.0045156,36.5540534 C24.4834789,36.5540534 24.9624423,37.0298718 25.4132313,36.6380213 C27.7235251,36.0502456 30.3155619,36.4420961 32.2877639,37.5056903 L34.3163145,38.3173806 C36.2039936,39.0171136 38.6551589,38.8211884 40.2892691,37.6736262 C39.5003883,38.6812418 38.3452415,39.4369535 37.1619203,39.8567933 Z M39.9793517,37.1418291 C37.0210487,38.261402 34.0627457,36.8899252 31.21714,36.4420961 L30.681828,36.3861175 L30.681828,36.3581281 C32.0341951,36.0502456 33.3583879,35.6583951 34.4290118,34.6787689 C36.0067734,33.1673455 37.4154891,31.5999435 39.1904709,30.4243921 C37.8944524,32.075762 37.7535809,34.4548543 35.5841587,35.5184485 C35.0488467,35.8543204 34.3726632,35.9382883 33.8373512,36.1901922 C34.626232,36.2181815 35.3305899,35.9382883 36.1194706,35.8543204 C39.021425,35.4064912 42.3178197,35.8543204 44.3463704,33.4192494 C43.5856639,35.126598 41.6979848,36.5540534 39.9793517,37.1418291 Z M45.3606457,28.8849794 C44.2054988,29.6406911 43.0221776,30.3404241 41.895205,31.2080931 L41.895205,31.0961358 C43.6138382,28.2692143 42.7686088,24.3786987 43.8392327,21.2438947 L44.2336731,20.2082898 C44.0082786,22.139553 44.853508,23.790923 44.7971594,25.7501754 C44.7408108,26.9257269 44.3463704,27.9613318 43.7265354,28.9129687 L43.8392327,28.9129687 C44.6844621,27.8213852 45.3324713,26.6458337 46.3185723,25.6102288 C47.8399853,24.1547841 49.3895726,22.6433608 49.5867928,20.6281297 C50.0939304,24.0148375 48.1780771,26.9817056 45.3606457,28.8849794 Z" id="Combined-Shape"></path>
                    <path d="M40.6837095,10.1321342 C37.8099295,4.05845156 31.4988831,0.195925248 24.8779193,0.195925248 C21.975965,0.25190389 19.3275795,0.895658276 16.9045884,2.07120976 C12.5939184,4.1144302 9.04395482,8.56473226 7.88880794,12.9590557 C5.94478027,20.3762258 8.56499148,27.8773638 14.9887351,32.2436979 C19.6093226,35.5184485 26.9346443,36.1622029 32.118718,33.643164 C36.7111312,31.7398902 40.6555352,27.0096949 41.8670307,22.3634676 C43.0221776,18.4449626 42.4868656,13.6307994 40.6837095,10.1321342 L40.6837095,10.1321342 L40.6837095,10.1321342 Z M41.5007646,16.2897849 C41.5571133,16.5976674 41.4725903,16.9335393 41.6416362,17.1854432 L39.1059479,17.2414218 C39.0495993,17.2974005 38.9650764,17.3253898 38.9087277,17.3253898 L38.9932507,17.2134325 C38.9369021,15.25418 38.4297644,13.4908528 37.6690579,11.8114935 C37.6408836,11.0557818 36.9083514,10.5519741 36.598434,9.90821968 C36.0349477,9.51636918 35.8659018,8.84462547 35.2178926,8.50875362 C35.1051953,8.36880702 35.0488467,8.17288177 34.8516265,8.11690313 L35.161544,8.06092448 C35.7532046,7.44515942 36.4293881,6.85738367 36.9083514,6.18563997 C39.5003883,9.09652936 41.1626729,12.3992693 41.5007646,16.2897849 L41.5007646,16.2897849 L41.5007646,16.2897849 Z M34.3726632,25.6941968 C34.1472687,25.4982715 34.1472687,25.0784317 33.7528283,25.0784317 C33.6119567,25.0504424 33.5556081,25.190389 33.5556081,25.274357 C33.5556081,25.3303356 33.5837824,25.4143036 33.5274338,25.4422929 L32.738553,24.7425599 C33.104819,24.5466346 33.3865622,24.0428268 33.6964796,23.6789657 C34.4290118,22.6713501 34.8516265,21.5237879 35.2460669,20.3482365 C35.3587642,20.4322044 35.5278101,20.4601937 35.6405073,20.3762258 C35.7532046,20.2922578 35.7813789,20.0963326 35.6968559,19.9843753 L35.4151128,19.6764927 C35.4432871,19.1446956 35.5841587,18.6408879 35.5278101,18.1090908 L35.7250302,18.1650694 C36.5420854,18.1650694 37.3591405,18.221048 38.1480213,18.1370801 L38.035324,18.2770267 C37.8381038,21.4118307 36.7393056,24.2667414 34.5135347,26.5618657 C34.626232,26.2819725 34.3163145,26.0300686 34.3726632,25.6941968 L34.3726632,25.6941968 L34.3726632,25.6941968 Z M32.3159382,28.2132357 C31.8651492,27.7933959 32.5976814,27.457524 32.738553,27.0656735 C32.65403,26.6458337 32.203241,26.4219191 31.8651492,26.3099619 C31.6961033,26.2259939 31.752452,26.0020793 31.752452,25.8621327 C31.9214978,25.6941968 32.0623694,25.5822395 32.1468924,25.3583249 L32.203241,25.5262609 L33.2738649,26.6458337 C33.2738649,26.8977376 33.3302136,27.1216522 33.5556081,27.2336095 C33.6683053,27.2895881 33.8091769,27.1776308 33.9218741,27.2056201 L33.8655255,27.2056201 C33.3865622,27.7094279 32.8230759,28.1012784 32.3159382,28.4931289 L32.203241,28.6610648 C32.0905437,28.4931289 32.4568098,28.4091609 32.3159382,28.2132357 L32.3159382,28.2132357 L32.3159382,28.2132357 Z M27.4136076,14.7223829 C27.272736,14.7783616 27.1318645,14.8623295 26.9628186,14.8063509 C26.821947,14.6384149 26.6247268,14.4424897 26.371158,14.4145004 C26.2021121,14.470479 26.0894148,14.6664043 25.8921946,14.554447 C26.2021121,14.2185751 26.7655984,14.1625965 26.9909929,13.686778 C27.0473415,13.4628635 27.1318645,13.2389489 27.1036901,12.987045 C27.0191672,12.8750877 26.8782956,12.7911198 26.7655984,12.8750877 C26.5965525,13.1549809 26.2021121,13.2109596 26.0048919,13.5188421 L25.385057,13.2949275 C25.2723597,12.7351411 25.4132313,11.9794294 25.2723597,11.503611 C25.6104515,11.6155683 25.9767176,11.6435576 26.3148093,11.6995362 C27.2163874,11.9234508 28.0334425,12.3432906 28.8223233,12.8191091 C28.6251031,12.8750877 28.4560572,13.0990023 28.2870113,13.2389489 C28.2870113,13.4068848 28.4560572,13.3509062 28.5124058,13.4348741 L28.6814517,13.3788955 C28.4278829,14.1066178 27.4981305,13.9946606 27.4136076,14.7223829 L27.4136076,14.7223829 L27.4136076,14.7223829 Z M28.1461398,21.9156384 C28.1179654,22.223521 27.6953507,22.223521 27.4699562,22.4474355 C27.357259,22.3914569 27.4417819,22.2794996 27.4699562,22.223521 C27.6671764,22.055585 27.8362223,21.8876491 28.1461398,21.9156384 L28.1461398,21.9156384 L28.1461398,21.9156384 Z M33.104819,13.5748207 C33.3865622,13.6307994 33.5556081,13.9666712 33.8655255,14.0506392 C34.1190943,14.4424897 34.2317916,14.9183082 34.3444889,15.3661373 C34.1190943,15.6180412 34.09092,16.2058169 33.5837824,16.121849 C33.4710851,15.8419558 33.8091769,15.6740198 33.724654,15.4221159 C33.8091769,15.338148 33.9500485,15.3101587 33.9782228,15.1982014 C33.9500485,14.9462975 33.6119567,15.0022761 33.5837824,14.7223829 C33.4710851,14.5824363 33.3020392,14.5824363 33.1611677,14.5264577 C32.8230759,14.3585217 32.5131584,15.1982014 32.4286355,14.554447 C32.5413328,14.470479 32.5976814,14.3305324 32.5131584,14.2185751 C32.2314153,14.0506392 32.203241,13.6587887 31.8933235,13.4908528 C31.4707088,13.4908528 31.0762684,13.3229169 30.6536537,13.4068848 C30.3719106,13.3509062 30.0619931,13.1549809 29.8647729,13.4628635 C29.8365986,13.686778 29.7239014,13.854714 29.695727,14.0786285 C29.5830298,14.0226499 29.4985068,13.9386819 29.4703325,13.8267246 C30.231039,12.9590557 31.1326171,12.119376 31.9214978,11.2796964 L31.9778465,11.1677391 C32.3722869,11.6715469 32.8512502,12.1473654 33.1611677,12.7071518 C33.189342,13.0150343 32.5413328,13.3788955 33.104819,13.5748207 L33.104819,13.5748207 L33.104819,13.5748207 Z M34.626232,18.1930587 C34.4853604,18.6688772 34.4853604,19.2006743 34.3726632,19.6764927 C34.3444889,19.7604607 34.3444889,19.8444287 34.2881402,19.9283966 C34.1472687,19.6205141 34.0063971,19.2286636 33.6683053,19.0607277 C33.3865622,18.8927918 33.5556081,18.5009413 33.3020392,18.3330053 L33.0202961,18.0531121 C33.4992594,18.2770267 34.1190943,18.221048 34.626232,18.1930587 L34.626232,18.1930587 L34.626232,18.1930587 Z M30.9917455,10.803878 C30.5409565,11.3356751 29.9211215,11.7835042 29.5266812,12.3432906 L29.4703325,12.1473654 C28.3151856,11.2237178 26.9909929,10.7478993 25.5259286,10.5519741 L25.300534,10.5799634 L25.3287084,8.22886041 L25.2441854,8.03293516 C26.2021121,8.17288177 27.1882131,8.31282837 28.0616168,8.62071091 C29.1885894,9.0125614 30.2592133,9.62832647 31.21714,10.4400168 L31.4425345,10.5239847 L30.9917455,10.803878 L30.9917455,10.803878 L30.9917455,10.803878 Z M28.5969288,23.706955 C29.3576353,23.790923 30.0901674,23.9308696 30.7945253,24.2107628 C30.9635712,24.2107628 31.1607914,24.1827734 31.2734886,24.0708162 C31.21714,23.790923 31.5834061,23.6509763 31.5552318,23.3710831 C31.6961033,23.1191792 31.6115804,22.7833074 31.8088006,22.5873821 C31.8369749,22.2794996 31.7806263,21.9436278 31.6115804,21.7197132 C31.4143602,21.6077559 31.2453143,21.7477025 31.0480941,21.7756918 C30.8508739,21.9436278 30.9072225,22.3914569 30.5409565,22.3074889 C30.4564335,22.4194462 30.2873876,22.4194462 30.1746904,22.3914569 C30.1465161,22.3354783 30.0901674,22.3354783 30.0901674,22.2794996 C30.3437363,22.139553 30.8226996,22.223521 30.8508739,21.8036812 C31.0480941,21.6357452 31.3298373,21.7197132 31.5270575,21.4957986 C31.667929,21.2718841 31.7242777,21.1039481 31.8933235,20.9080229 C31.9214978,20.8240549 31.9496722,20.740087 31.9496722,20.6281297 C32.0060208,20.740087 32.0060208,20.9080229 32.1468924,20.9919908 C32.3441126,21.0479695 32.4286355,20.8800336 32.5131584,20.7680763 C32.5131584,20.7120976 32.5695071,20.6001403 32.6258557,20.656119 C32.8512502,20.8240549 33.1611677,20.6841083 33.4147365,20.7120976 C33.640131,20.6281297 33.8655255,20.6001403 34.1190943,20.6001403 C33.9218741,21.5517773 33.4147365,22.4474355 32.8512502,23.2871152 C32.6258557,23.5670084 32.4286355,23.8469016 32.203241,24.0988055 C32.118718,23.9028802 32.118718,23.622987 31.9496722,23.4550511 L31.8369749,23.4830404 C31.6961033,23.7629336 31.4143602,23.9868482 31.4425345,24.3227201 C31.2453143,24.6585919 30.7100023,24.3786987 30.4000849,24.5466346 C30.0338188,24.6585919 29.8365986,24.2947307 29.5266812,24.2107628 C29.1885894,24.0708162 28.8223233,24.0708162 28.4842315,23.9028802 C28.4560572,23.790923 28.5124058,23.7349443 28.5969288,23.706955 L28.5969288,23.706955 L28.5969288,23.706955 Z M26.9346443,1.25951945 C30.4564335,1.73533791 33.5837824,3.13480397 36.2321679,5.62585355 L35.9222504,5.73781083 C35.4432871,6.24161861 34.8798008,6.66145843 34.5980577,7.27722349 C34.5698834,7.10928756 34.3163145,6.99733028 34.2317916,6.82939435 C34.175443,6.35357589 33.724654,5.90574676 33.3020392,5.65384287 C32.9639475,5.59786422 32.8794245,5.09405644 32.4568098,5.23400305 C32.118718,4.92612052 31.667929,5.15003509 31.3298373,5.31797101 L31.3298373,5.37394966 C29.6675527,4.42231274 27.808048,3.86252631 25.8076717,3.69459039 C25.6949744,3.69459039 25.6668001,3.77855835 25.5541029,3.75056903 C25.6668001,3.69459039 25.6104515,3.47067582 25.6104515,3.35871853 C25.5541029,3.27475057 25.4414056,3.16279329 25.3287084,3.24676125 C25.2723597,3.30273989 25.2441854,3.38670786 25.2441854,3.4426865 C25.300534,2.65898551 25.3287084,1.73533791 25.2160111,1.03560488 C25.7794974,1.20354081 26.371158,1.14756217 26.9346443,1.25951945 L26.9346443,1.25951945 L26.9346443,1.25951945 Z M26.2584607,4.75818459 C27.808048,4.95410984 29.1604151,5.34596033 30.5127821,5.9617254 C30.7100023,6.26960793 31.1044427,6.40955454 31.1607914,6.80140503 C30.9635712,7.33320213 31.8651492,7.33320213 31.4707088,7.86499924 C31.4425345,8.03293516 31.5834061,8.14489245 31.6397547,8.25684973 C31.6961033,8.39679634 31.6115804,8.62071091 31.7806263,8.70467887 C32.0905437,8.76065751 32.2314153,8.36880702 32.5413328,8.4807643 C32.9639475,8.78864683 33.0484704,9.26446529 33.0484704,9.71229443 C33.104819,9.99218764 33.3583879,10.1881129 33.6119567,10.3000702 C34.1190943,10.1321342 33.8936998,10.71991 34.2317916,10.8598566 C34.626232,10.9158352 34.8234522,11.419643 35.2742412,11.3916537 C35.6686816,11.6995362 35.8940761,12.119376 36.2321679,12.4552479 C36.2321679,12.5392159 36.2603422,12.5951945 36.3448652,12.6231838 C36.5702597,12.6791625 36.6829569,12.5392159 36.8801771,12.5112265 C37.5563607,13.8827033 37.8944524,15.3941266 38.0071497,17.0175072 L38.0916726,17.1854432 C37.2464432,17.1854432 36.4012138,17.1854432 35.5278101,17.2414218 C35.4996357,16.737614 35.5278101,16.2338063 35.2460669,15.8139664 C35.3869385,15.5620625 35.4151128,15.2261907 35.3869385,14.9183082 C35.3305899,14.7783616 35.2178926,14.8903188 35.161544,14.9183082 C34.8798008,15.1982014 34.8516265,15.5620625 34.7107549,15.8699451 C34.4571861,16.2058169 34.4290118,16.7096247 34.5698834,17.1014752 L34.6825806,17.2134325 L33.6964796,17.1854432 C33.9218741,17.0454966 33.4992594,16.7656034 33.724654,16.5136995 L34.175443,16.4297315 C34.3163145,16.121849 34.6544063,15.8699451 34.6544063,15.4780946 C34.8516265,15.25418 35.0206724,14.9462975 34.8798008,14.6104256 C34.6544063,14.1346072 35.2460669,13.6587887 34.7952779,13.1829702 C34.8516265,13.0430236 34.7389293,12.8750877 34.5698834,12.8750877 C34.4290118,12.8191091 34.2599659,12.8750877 34.2599659,12.6791625 C34.3444889,12.5672052 34.5417091,12.4272586 34.4853604,12.2313333 C34.3726632,12.0913867 34.2036173,12.203344 34.09092,12.203344 C34.0627457,11.9794294 34.4571861,11.7555149 34.1190943,11.5875789 C33.8936998,11.5316003 33.7528283,11.8394828 33.5274338,11.7275255 C33.4147365,11.6435576 33.3583879,11.503611 33.4429108,11.3636644 L32.9075988,10.71991 C32.8512502,10.6639313 32.7103786,10.7478993 32.7103786,10.635942 C32.738553,10.1321342 32.118718,9.82425171 32.0905437,9.32044393 C31.8933235,9.15250801 32.0623694,8.81663615 31.8088006,8.67668955 C31.667929,8.56473226 31.4988831,8.45277498 31.3298373,8.53674294 C31.1044427,8.22886041 30.8508739,7.92097788 30.5409565,7.64108467 C30.4564335,7.61309534 30.4000849,7.66907399 30.3437363,7.72505263 C30.3719106,7.97695652 30.681828,8.11690313 30.6536537,8.36880702 C30.5973051,8.36880702 30.5691308,8.36880702 30.5409565,8.39679634 C30.5691308,8.64870023 30.766351,8.84462547 30.9353969,9.0125614 C29.5548555,7.9489672 27.9489196,7.4171701 26.2302864,7.13727689 C25.8921946,7.13727689 25.5541029,6.99733028 25.2160111,7.10928756 C25.300534,6.35357589 25.2441854,5.48590694 25.2723597,4.67421663 L25.1878368,4.5062807 C25.5541029,4.75818459 25.8921946,4.70220595 26.2584607,4.75818459 L26.2584607,4.75818459 L26.2584607,4.75818459 Z M24.7933964,14.7783616 L24.934268,14.8623295 C24.7652221,14.8623295 24.5398276,14.7503722 24.398956,14.8903188 C24.2862587,14.9742868 24.3707817,15.1142334 24.398956,15.1982014 C24.7088734,15.3101587 24.7933964,15.8419558 25.2160111,15.6460305 C25.385057,15.6740198 25.6104515,15.7299985 25.6668001,15.9259237 C25.920369,16.0098917 25.9485433,16.4577208 26.3148093,16.3737529 C26.286635,16.5416888 26.2302864,16.821582 26.4556809,16.9615286 C26.3993323,17.1014752 26.2021121,17.1854432 26.2302864,17.3533791 C26.2021121,17.4093577 26.1457635,17.4933257 26.2021121,17.5493043 C26.5120295,17.5772937 26.5120295,17.9411548 26.6529011,18.1370801 C26.5683782,18.388984 26.6810754,18.6408879 26.8782956,18.7808345 C26.8501213,19.088717 26.7092497,19.3406209 26.5683782,19.5925248 C26.2302864,19.7604607 25.6668001,19.3406209 25.5541029,19.956386 C25.3568827,20.1803005 25.5259286,20.6281297 25.1596625,20.656119 C24.4553046,20.7120976 23.7791211,20.5441617 23.2156348,20.1243219 C23.5819009,19.956386 24.2017358,20.2082898 24.314433,19.6764927 C24.398956,19.5925248 24.4553046,19.4525782 24.398956,19.3406209 C24.5680019,19.172685 24.6243505,18.9487704 24.7088734,18.7528452 C24.5680019,18.6128985 24.6243505,18.5569199 24.6806991,18.388984 C24.314433,18.0251228 23.8354697,18.221048 23.3846807,18.221048 C23.1029375,18.388984 23.3846807,18.6688772 23.1874605,18.8648024 C22.8493687,18.9207811 22.8211944,19.2566529 22.5957999,19.4525782 C22.4549283,19.3965995 22.3422311,19.2006743 22.3704054,19.0607277 L22.426754,19.0607277 C22.3985797,19.1167063 22.4549283,19.2006743 22.5112769,19.2006743 C22.8493687,19.2566529 22.7366715,18.8648024 22.8493687,18.7248558 C22.9057173,18.5289306 23.3846807,18.221048 22.9902403,18.0811014 C22.962066,17.9971335 23.0465889,17.8851762 22.9338917,17.8291976 C22.8211944,17.8851762 22.5957999,17.8851762 22.5957999,18.0531121 C22.6521485,18.221048 22.5957999,18.3609947 22.4549283,18.4729519 L22.3704054,18.4729519 C22.3985797,18.3609947 22.3140567,18.305016 22.2577081,18.2490374 C22.0604879,18.2490374 21.891442,18.4169733 21.6942218,18.3609947 C21.4124787,18.4169733 21.1025612,18.4729519 20.8208181,18.4729519 C20.7926438,18.305016 21.0462126,18.3609947 21.1025612,18.1930587 C21.0462126,17.9411548 21.2434328,17.7732189 21.3561301,17.5772937 C21.440653,17.521315 21.5533503,17.521315 21.6378732,17.5493043 C21.6942218,17.605283 21.7787448,17.6892509 21.891442,17.6612616 L21.975965,17.521315 C22.2295338,17.6892509 22.0886622,18.4169733 22.5957999,18.1090908 C22.6803228,17.8012082 22.5957999,17.4093577 22.7366715,17.1014752 C22.6239742,16.821582 22.9338917,16.7096247 23.0184146,16.5136995 C23.3001577,16.5416888 23.2719834,16.2338063 23.3846807,16.0938596 C23.8072954,15.9819024 24.2299101,15.8699451 24.4834789,15.4501053 C24.3707817,15.2261907 24.4553046,14.9183082 24.2862587,14.7503722 C24.3426074,14.7223829 24.6525248,14.6104256 24.7933964,14.7783616 L24.7933964,14.7783616 L24.7933964,14.7783616 Z M24.398956,30.9281998 L24.1453872,30.7602639 C20.8771667,30.592328 18.0879096,29.2488406 15.6649186,27.1496415 C16.059359,27.0936628 16.2002306,27.6254599 16.6510196,27.4855133 C17.129983,27.4295347 17.496249,27.0656735 18.0033867,27.1496415 C18.2569555,27.1496415 18.566873,27.1496415 18.7077445,26.9257269 C18.7922675,26.673823 18.5105243,26.5338764 18.4541757,26.3379512 C20.1164603,27.5694813 21.975965,28.3531823 24.1172128,28.4371503 L24.314433,28.3531823 L24.314433,30.6483066 L24.398956,30.9281998 L24.398956,30.9281998 L24.398956,30.9281998 Z M15.2141296,18.3609947 L15.073258,18.1650694 C15.3268269,18.3609947 15.60857,18.305016 15.9184875,18.2490374 C15.4958727,18.388984 15.6367443,18.9207811 15.4676984,19.2286636 C15.4395241,19.3965995 15.6649186,19.4245889 15.6367443,19.5925248 C15.4113498,19.7044821 15.4113498,19.9283966 15.2986525,20.0963326 C15.4395241,19.5085568 15.2141296,18.9487704 15.2141296,18.3609947 L15.2141296,18.3609947 L15.2141296,18.3609947 Z M12.5657441,21.3838413 C12.3403496,21.4118307 12.3966982,21.6637345 12.2840009,21.8036812 C12.3121753,21.1879161 12.0304321,20.6001403 11.9459092,19.9843753 L11.748689,18.388984 L11.6359917,18.2490374 C12.3966982,18.3609947 13.2701019,18.2770267 14.0589827,18.305016 L14.2562029,18.221048 C14.17168,18.6128985 14.17168,19.172685 14.4534231,19.5085568 C14.3689002,19.3965995 14.2280286,19.088717 14.0026341,19.1167063 C13.5518451,19.1446956 13.5236708,19.7324714 13.0728817,19.7324714 C12.7066156,20.0403539 12.650267,20.4601937 12.5657441,20.8800336 C12.73479,21.0199802 12.4530468,21.1879161 12.5657441,21.3838413 L12.5657441,21.3838413 L12.5657441,21.3838413 Z M14.3407259,17.3533791 L14.1153314,17.2694111 L11.7205147,17.3253898 C11.9459092,14.6664043 12.6784413,12.203344 14.2280286,10.1041449 L15.1859553,8.90060412 L15.2141296,8.73266819 C15.7776159,9.37642258 16.3974508,9.99218764 17.0736343,10.5799634 C15.3550012,12.4272586 14.4815974,14.6384149 14.2843772,17.1294645 C14.2843772,17.1854432 14.2562029,17.2694111 14.3407259,17.3533791 L14.3407259,17.3533791 L14.3407259,17.3533791 Z M24.2862587,7.19325553 C23.8354697,7.10928756 23.3565064,7.24923417 22.9057173,7.30521281 C20.9616897,7.69706331 19.1303593,8.53674294 17.6371206,9.96419832 L17.580772,9.79626239 C16.9891114,9.26446529 16.4537994,8.56473226 15.8057902,8.17288177 C16.3692765,7.83700991 16.8764141,7.36119145 17.4117261,6.96934096 C19.4402767,5.59786422 21.7223962,4.84215255 24.2580844,4.70220595 C24.1735615,5.51389626 24.2580844,6.35357589 24.2862587,7.19325553 L24.2862587,7.19325553 L24.2862587,7.19325553 Z M20.3700291,20.3202471 C20.3700291,20.4042151 20.4827263,20.4881831 20.5672493,20.4322044 C20.6517722,20.2922578 20.3700291,20.0683432 20.5954236,19.9843753 C20.7362952,20.1523112 20.6799465,20.4042151 20.7362952,20.572151 C20.8208181,20.6841083 20.8208181,20.7680763 20.8208181,20.9080229 C20.5954236,21.1879161 20.2573318,21.43982 20.0882859,21.7477025 C19.9192401,21.355852 19.5811483,21.0479695 19.4121024,20.656119 C19.1585336,20.2082898 19.017662,19.6764927 18.7922675,19.2286636 C18.9894877,19.4805675 19.552974,19.2006743 19.552974,19.6764927 C19.5811483,19.7044821 19.6374969,19.7044821 19.6938455,19.7044821 C19.7783685,19.6205141 19.7783685,19.6205141 19.8628914,19.6764927 C19.9192401,19.7604607 20.1164603,19.8164394 19.9474144,19.9004073 C20.003763,20.1243219 20.1728089,20.2922578 20.3700291,20.3202471 L20.3700291,20.3202471 L20.3700291,20.3202471 Z M22.962066,27.1216522 L23.3846807,27.3175774 C21.8632677,26.9537162 20.2291575,26.4219191 18.9049647,25.3303356 C18.6795702,25.190389 18.5386987,24.9104958 18.2569555,24.8825065 C18.8767904,24.3786987 19.4966253,23.7349443 20.003763,23.1191792 C20.2291575,23.5390191 20.7362952,23.7629336 21.1025612,24.0428268 C21.7787448,24.3507094 22.4549283,24.9104958 23.2438091,24.7425599 C22.9902403,24.8265278 22.7930201,24.9664744 22.5957999,25.1623997 C22.4831026,25.3863143 22.5112769,25.7501754 22.2013595,25.8621327 C22.2013595,26.3379512 22.6521485,26.757791 22.962066,27.1216522 L22.962066,27.1216522 L22.962066,27.1216522 Z M17.3835518,24.0428268 L17.2990288,23.5110297 C16.7918912,23.0632006 16.9609371,22.3074889 16.8764141,21.7477025 C16.5383224,21.4678093 16.7918912,21.0199802 16.5664967,20.7120976 C16.5664967,20.2082898 15.7776159,20.0403539 16.0311847,19.4805675 C15.9466618,19.3406209 15.8057902,19.172685 15.9184875,18.9767597 C16.0875333,18.7808345 16.4256251,19.004749 16.510148,18.7248558 L16.5664967,18.2490374 C16.7637169,18.1370801 17.0172857,18.388984 17.1018086,18.1370801 C17.2708545,17.6892509 16.4537994,17.1854432 17.1581573,16.9335393 C17.3835518,16.90555 17.7216436,16.8495713 17.8061665,17.1574538 C17.8625151,17.4933257 17.9470381,17.8291976 17.8343408,18.1930587 C18.0597353,18.2770267 17.8625151,18.4729519 17.8625151,18.6408879 C17.7216436,18.6968665 17.580772,18.8368131 17.4399004,18.7808345 C17.3553775,18.6688772 17.2426802,18.4729519 17.0736343,18.4729519 C16.9327628,18.6408879 17.129983,18.8368131 17.1018086,19.0607277 C17.04546,19.172685 17.1018086,19.3126316 17.0172857,19.4245889 C16.9609371,19.3686102 16.9045884,19.3686102 16.8200655,19.3686102 C16.6791939,19.4525782 16.7637169,19.5925248 16.7918912,19.7044821 C16.9609371,19.78845 17.0736343,19.956386 17.2426802,19.956386 L17.3272032,19.8444287 C17.2990288,19.5645355 17.4399004,19.3406209 17.4399004,19.0607277 L17.6934692,19.2006743 C17.9188638,20.2922578 18.4260014,21.2718841 19.0458363,22.1955316 L19.3839281,22.5314035 C18.5950473,23.2311365 17.8061665,24.0428268 17.129983,24.8265278 L17.129983,24.8545172 C17.129983,24.8265278 17.1018086,24.6865812 16.9891114,24.7425599 C16.9327628,24.3227201 17.4680747,24.4346773 17.3835518,24.0428268 L17.3835518,24.0428268 L17.3835518,24.0428268 Z M18.5950473,13.7427567 C18.3414785,13.8827033 18.1442583,14.1346072 18.0033867,14.3585217 C17.7779922,14.4984683 17.5244234,14.470479 17.3553775,14.7223829 C17.3553775,14.8063509 17.4680747,14.9462975 17.3272032,15.0022761 C17.129983,15.1982014 16.7073682,14.9462975 16.594671,15.3101587 C16.5664967,15.6460305 16.1720563,15.8139664 16.2002306,16.1778276 C16.0030104,16.3177742 16.0311847,16.5976674 16.059359,16.7935927 C16.1720563,16.9335393 16.0030104,17.1854432 16.2002306,17.2974005 C15.8621388,17.2414218 15.4113498,17.2134325 15.1014323,17.3533791 C15.2704782,16.9615286 15.2141296,16.4857101 15.2986525,16.0658703 C15.6367443,14.2745538 16.4537994,12.6791625 17.6652949,11.2517071 C18.2569555,11.8394828 18.9049647,12.5392159 19.6093226,13.0430236 C19.1303593,13.0430236 19.1303593,13.770746 18.5950473,13.7427567 L18.5950473,13.7427567 L18.5950473,13.7427567 Z M24.0045156,23.1471686 C23.8918183,23.3430938 23.9763413,23.6509763 23.9199927,23.8748909 C22.7648458,23.6789657 21.6942218,23.2031472 20.7644695,22.4194462 C21.2997814,21.8596598 22.0041393,21.2998734 22.3985797,20.6841083 C22.4549283,20.9640015 22.7930201,21.1039481 23.0184146,21.2159054 C23.4973779,21.4118307 24.0608642,21.7477025 24.5961762,21.5237879 C24.5398276,21.5517773 24.5116532,21.6077559 24.4834789,21.6357452 C24.6243505,21.7756918 24.3707817,21.9436278 24.5398276,22.0835744 C24.5680019,22.1955316 24.4271303,22.1675423 24.4271303,22.2794996 C24.5116532,22.4474355 24.398956,22.6993394 24.6525248,22.7553181 C24.7088734,22.839286 24.6525248,22.9792326 24.5398276,22.9792326 C24.314433,22.9512433 24.0890385,22.9512433 24.0045156,23.1471686 L24.0045156,23.1471686 L24.0045156,23.1471686 Z M21.1870842,20.5161724 C21.3561301,20.3482365 21.4970016,20.1803005 21.5533503,19.956386 L21.8632677,20.0963326 C21.5533503,20.1243219 21.4124787,20.4042151 21.1870842,20.5161724 L21.1870842,20.5161724 L21.1870842,20.5161724 L21.1870842,20.5161724 Z M23.6100752,13.4348741 C23.5537266,13.3229169 23.6945981,13.1829702 23.5537266,13.0990023 C23.1592862,13.2949275 23.3001577,13.7147673 23.0184146,14.0226499 C22.962066,14.2465645 22.6803228,14.1346072 22.5394513,14.2465645 C22.426754,14.0786285 22.2295338,14.0786285 22.0604879,14.1905858 C21.8632677,14.1905858 21.8069191,13.770746 21.5815246,13.9946606 C21.525176,14.0786285 21.5533503,14.2185751 21.3843044,14.1625965 C21.3561301,14.1066178 21.2997814,14.1066178 21.2434328,14.0506392 C21.2434328,13.9106926 21.4688273,13.9386819 21.3843044,13.770746 C21.2152585,13.4908528 20.8771667,13.5468314 20.6799465,13.3229169 L20.4827263,13.3229169 C21.525176,12.2313333 22.8211944,11.7555149 24.2299101,11.5875789 C24.2017358,12.203344 24.1735615,12.9310664 24.3707817,13.4908528 C24.2017358,13.2109596 23.8918183,13.5468314 23.6100752,13.4348741 L23.6100752,13.4348741 L23.6100752,13.4348741 Z M24.314433,10.6079527 C23.863644,10.4959954 23.4410293,10.71991 22.9902403,10.7478993 C22.0041393,10.9998032 21.1589099,11.5316003 20.3136804,12.119376 C20.2573318,12.1753547 20.2291575,12.2593227 20.1728089,12.3153013 C19.5811483,11.7835042 18.9613134,11.0557818 18.3133041,10.5799634 C20.003763,9.20848665 21.9477907,8.28483905 24.1735615,8.11690313 L24.314433,8.03293516 C24.2299101,8.90060412 24.2299101,9.79626239 24.314433,10.6079527 L24.314433,10.6079527 L24.314433,10.6079527 Z M14.8196892,4.45030206 C17.6089463,2.46306026 20.7362952,1.25951945 24.2580844,1.11957284 L24.1735615,1.37147673 L24.2017358,3.47067582 L24.2862587,3.66660107 C20.8771667,3.83453699 17.8906894,5.09405644 15.3268269,7.4171701 L15.2704782,7.52912738 C14.6788176,6.91336232 14.0308084,6.18563997 13.3264506,5.68183219 L13.2419276,5.68183219 C13.8054139,5.37394966 14.2843772,4.81416323 14.8196892,4.45030206 L14.8196892,4.45030206 L14.8196892,4.45030206 Z M8.31142265,15.7299985 C8.76221168,12.119376 10.311799,8.98457208 12.7911386,6.21362929 L12.8474872,6.43754386 C13.4391478,7.0253196 14.0308084,7.64108467 14.622469,8.17288177 C14.1435057,8.50875362 13.8335882,9.06854004 13.4391478,9.51636918 C11.8613862,11.7275255 10.9879825,14.1905858 10.8189366,16.9895179 L10.8752852,17.3253898 C10.0018815,17.2414218 9.04395482,17.2414218 8.17055108,17.3253898 C8.25507402,16.7935927 8.1987254,16.2617956 8.31142265,15.7299985 L8.31142265,15.7299985 L8.31142265,15.7299985 Z M10.3399733,25.9181114 C9.07212913,23.5949977 8.33959697,21.0479695 8.1987254,18.2770267 L10.6217164,18.305016 L10.8471109,18.221048 C10.8189366,18.3609947 10.8189366,18.5289306 10.8189366,18.6968665 L10.7907623,18.6688772 C10.7344137,18.7248558 10.8471109,18.7528452 10.8471109,18.8088238 C10.9034595,19.7324714 11.0443311,20.6001403 11.2697256,21.4678093 L11.3824229,21.6637345 C11.1852027,21.4957986 11.1288541,21.2998734 10.9879825,21.1319374 C10.7907623,21.1599268 10.5653678,21.2159054 10.4244962,21.355852 C10.5090192,21.6077559 10.2554503,21.5237879 10.1427531,21.6077559 C10.1145788,21.5517773 10.0300558,21.4678093 9.97370718,21.43982 C9.77648698,21.43982 9.6074411,21.4678093 9.52291816,21.6357452 C9.55109247,21.7756918 9.4102209,21.8316705 9.35387227,21.9436278 C9.29752365,22.3354783 9.15665207,22.839286 9.46656953,23.1751579 C9.46656953,23.4550511 9.6074411,23.7349443 9.83283561,23.9028802 C9.91735856,23.9308696 9.97370718,23.8469016 10.0300558,23.8189123 C10.2554503,23.9868482 10.3963219,24.406688 10.7344137,24.3507094 C10.8471109,24.2947307 10.8189366,24.1827734 10.8471109,24.1267948 C11.0443311,24.3227201 11.1288541,24.6865812 11.4669458,24.6585919 C11.5514688,24.7425599 11.6078174,24.9104958 11.748689,24.9104958 C12.1149551,24.7985385 11.9740835,25.3303356 12.2558266,25.4702822 C12.4530468,25.6102288 12.5657441,25.9181114 12.8756615,25.7781648 L12.9883588,25.6382181 C13.101056,25.6941968 13.0165331,25.890122 13.101056,25.97409 C13.2419276,26.2539832 13.5518451,26.4499085 13.8335882,26.5338764 C14.087157,26.8137696 14.3407259,27.1776308 14.6506433,27.3735561 L14.4252488,27.457524 L12.6784413,29.2488406 C11.8613862,28.1012784 10.9598082,27.0656735 10.3399733,25.9181114 L10.3399733,25.9181114 L10.3399733,25.9181114 Z M22.6803228,34.1749611 C19.1585336,33.6991426 16.0875333,32.1877193 13.3264506,29.8366163 L15.1296067,28.0452998 L15.157781,27.9333425 C17.6652949,30.3404241 20.6799465,31.5439649 24.0890385,31.7678795 L24.3707817,31.7119008 L24.2862587,31.8518474 L24.2862587,34.2029504 L24.4271303,34.426865 C23.863644,34.2029504 23.2438091,34.2589291 22.6803228,34.1749611 L22.6803228,34.1749611 L22.6803228,34.1749611 Z M24.7933964,24.2947307 C24.5961762,24.3227201 24.4271303,24.2947307 24.2862587,24.2387521 C24.2017358,24.2387521 24.2299101,24.1547841 24.2017358,24.0988055 C24.4553046,24.0988055 24.5680019,23.790923 24.849745,23.8469016 C25.0187909,23.706955 25.0469652,23.4830404 25.2441854,23.3990725 C25.1878368,23.1751579 25.4695799,23.3151045 25.5259286,23.2031472 C25.6104515,23.1191792 25.7231488,23.0632006 25.835846,23.1191792 C26.0048919,23.3710831 26.371158,23.2591259 26.5402039,23.5390191 C26.6247268,23.5670084 26.6529011,23.4830404 26.6529011,23.4270618 L26.6529011,23.3151045 C26.9346443,23.2871152 27.0755158,23.6789657 27.3854333,23.4270618 C27.4699562,23.3710831 27.4417819,23.2311365 27.3854333,23.1751579 C27.357259,23.1471686 27.3009103,23.1471686 27.3009103,23.0911899 C27.4981305,23.007222 27.6108278,23.3990725 27.8643966,23.2591259 C28.0616168,23.0911899 28.2024884,22.8952647 28.4842315,22.8952647 L28.5405802,22.9792326 C28.5969288,23.5110297 28.1461398,23.8189123 27.7516994,24.0428268 C27.4981305,24.1547841 27.0191672,24.1267948 27.0473415,24.5186453 C26.7655984,24.7705492 26.4838552,24.3507094 26.1175891,24.4626667 C25.9485433,24.3786987 26.1175891,24.1267948 25.8921946,24.0988055 C25.4977542,24.2387521 25.0469652,23.8748909 24.7933964,24.2947307 L24.7933964,24.2947307 L24.7933964,24.2947307 Z M25.4414056,28.7170435 C25.7513231,28.8569901 26.3148093,28.5770969 26.4838552,28.940958 C26.3993323,29.1368833 26.2302864,29.3328085 26.286635,29.5567231 C26.4275066,29.892595 26.5965525,30.3124348 27.0191672,30.3404241 C27.1318645,30.4803707 27.272736,30.50836 27.4136076,30.5643387 C26.7092497,30.6762959 25.9485433,30.6483066 25.300534,30.8722212 C25.385057,30.1724882 25.300534,29.4447658 25.300534,28.7170435 L25.1596625,28.5211182 C25.300534,28.5491075 25.3568827,28.6610648 25.4414056,28.7170435 L25.4414056,28.7170435 L25.4414056,28.7170435 Z M25.4695799,34.2869184 L25.300534,34.3988757 C25.3568827,33.5032174 25.3568827,32.5515805 25.300534,31.6559222 C25.7513231,31.7958688 26.2021121,31.6279329 26.6810754,31.6279329 L28.0334425,31.4040183 C28.709626,31.5439649 29.1604151,32.6075591 29.8929472,31.9638047 C30.1465161,31.6559222 30.5973051,31.6839115 30.766351,31.2640717 C31.1889657,31.0961358 31.3016629,30.6762959 31.6115804,30.3964027 C31.8933235,29.5847124 32.8230759,29.4447658 33.3865622,28.8849794 C33.8091769,28.5211182 34.3444889,28.2132357 34.5980577,27.7374172 L34.626232,27.9333425 L36.4857367,29.6966697 C33.3302136,32.5235911 29.695727,34.0909931 25.4695799,34.2869184 L25.4695799,34.2869184 L25.4695799,34.2869184 Z M41.5571133,18.3330053 C41.3880674,22.4194462 39.8666544,25.9181114 37.1900946,28.9689474 L37.1055716,29.108894 C36.5420854,28.5211182 35.8095532,27.7374172 35.161544,27.2056201 C35.5559844,26.9257269 35.8659018,26.4778978 36.2039936,26.0860473 C37.8662781,23.8189123 38.8523791,21.2438947 38.9932507,18.3609947 L38.9087277,18.1370801 L39.0495993,18.2490374 L41.5571133,18.221048 L41.6979848,18.1650694 L41.5571133,18.3330053 L41.5571133,18.3330053 L41.5571133,18.3330053 Z" id="Shape"></path>
                    <path d="M32.65403,4.64622731 C32.65403,4.73019527 32.65403,4.81416323 32.7103786,4.8981312 C33.0766447,5.0380778 33.1329934,5.5698749 33.5837824,5.4299283 C33.724654,5.26199237 33.4992594,5.09405644 33.5274338,4.8981312 C33.4710851,4.70220595 33.3020392,4.64622731 33.1329934,4.59024866 C32.9639475,4.78617391 32.7949016,4.45030206 32.65403,4.64622731 L32.65403,4.64622731 L32.65403,4.64622731 Z" id="Shape"></path>
                    <path d="M25.6386258,3.19078261 C26.0894148,3.77855835 26.9064699,3.4426865 27.4981305,3.33072921 C27.9207453,3.49866514 28.3151856,3.30273989 28.6251031,3.02284668 L28.6251031,2.96686804 C28.3151856,2.54702822 27.7516994,2.49104958 27.2445617,2.43507094 L25.9767176,2.96686804 C25.8640203,2.9108894 25.6668001,2.85491075 25.6104515,3.02284668 C25.5541029,3.07882532 25.6104515,3.13480397 25.6386258,3.19078261 L25.6386258,3.19078261 L25.6386258,3.19078261 Z" id="Shape"></path>
                </g>
            </g>
        </g>
    </g>
</svg>